<svg width="1718" height="1527" viewBox="0 0 1718 1527" fill="none" xmlns="http://www.w3.org/2000/svg">
<path d="M885 547C885 322.772 1066.77 141 1291 141H1312C1536.23 141 1718 322.772 1718 547C1718 771.228 1536.23 953 1312 953H1291C1066.77 953 885 771.228 885 547Z" fill="#AFDA54" fill-opacity="0.44"/>
<path d="M0 634.5C0 284.075 284.075 0 634.5 0H666.5C1016.92 0 1301 284.075 1301 634.5C1301 984.925 1016.92 1269 666.5 1269H634.5C284.075 1269 0 984.925 0 634.5Z" fill="#B7EDD2" fill-opacity="0.51"/>
<path d="M296 1037C296 766.38 515.38 547 786 547H811C1081.62 547 1301 766.38 1301 1037C1301 1307.62 1081.62 1527 811 1527H786C515.38 1527 296 1307.62 296 1037Z" fill="#DB6232" fill-opacity="0.29"/>
</svg>
