<svg width="79" height="62" viewBox="0 0 79 62" fill="none" xmlns="http://www.w3.org/2000/svg">
<path fill-rule="evenodd" clip-rule="evenodd" d="M70.7339 31.0527V32.9474C70.908 32.9474 71.0497 33.0891 71.0497 33.2632V34.5264C71.0497 34.7004 70.9081 34.8422 70.7339 34.8422V36.7369C71.9528 36.7369 72.9444 35.7452 72.9444 34.5264V33.2632C72.9444 32.0444 71.9528 31.0527 70.7339 31.0527Z" fill="black"/>
<path fill-rule="evenodd" clip-rule="evenodd" d="M76.1053 41.4211C77.3242 41.4211 78.3158 40.4294 78.3158 39.2106V19C78.3158 15.6917 75.6241 13 72.3158 13L47.3685 13V14.8948L72.3158 14.8948C74.2535 14.8948 75.8819 16.2442 76.3109 18.0527H55.8948C55.3715 18.0527 54.9475 18.4769 54.9475 19C54.9475 19.5232 55.3715 19.9473 55.8948 19.9473H76.4211V39.2105C76.4211 39.3845 76.2796 39.5263 76.1053 39.5263H38.2105C38.0364 39.5263 37.8947 39.3847 37.8947 39.2105V19C37.8947 16.7364 39.7363 14.8947 42 14.8947L45.4737 14.8947L45.4737 13.0001L42 13.0001C39.0137 13.0001 36.5302 15.1928 36.0748 18.0528C36.0373 22.2076 36.0375 23.3506 36.0376 23.9225C36.0377 24.4933 36.0377 24.495 36 26.3549V37.0001C36.0748 38.1316 36 38.8948 36 38.8948C36 40.1997 36.7671 41.4211 38.2105 41.4211H54.9473V59.737H42C41.4767 59.737 41.0527 60.1612 41.0527 60.6843C41.0527 61.2075 41.4767 61.6316 42 61.6316H58.421C58.9444 61.6316 59.3684 61.2074 59.3684 60.6843C59.3684 60.1611 58.9444 59.737 58.421 59.737H56.842V41.4211H62.5262V59.737H62.2104C61.687 59.737 61.2631 60.1612 61.2631 60.6843C61.2631 61.2075 61.6872 61.6316 62.2104 61.6316H77.3682C77.8916 61.6316 78.3156 61.2074 78.3156 60.6843C78.3156 60.1611 77.8916 59.737 77.3682 59.737H64.4211V41.4211H76.1053Z" fill="black"/>
<path d="M47.3685 14.8948V13L45.4737 13.0001L45.4737 14.8947L47.3685 14.8948Z" fill="black"/>
<path d="M46.2173 28.7551C45.8223 28.703 45.5035 28.4066 45.4176 28.0232C45.4026 27.9564 45.3947 27.887 45.3947 27.8158C45.3947 27.2902 45.8185 26.8684 46.342 26.8684C45.8196 26.8684 45.3947 27.2934 45.3947 27.8158C45.3947 27.887 45.4026 27.9564 45.4176 28.0232C45.5034 28.3988 45.8172 28.7023 46.2173 28.7551Z" fill="black"/>
<path fill-rule="evenodd" clip-rule="evenodd" d="M63.7105 30.6578V35.3947C63.7105 37.6584 65.5522 39.5 67.8158 39.5C68.0794 39.5 68.3384 39.473 68.5904 39.4218C70.1511 39.0888 71.5049 37.7371 71.8412 36.1773C71.8935 35.9228 71.921 35.661 71.921 35.3947V27.1841C71.921 25.9653 70.9298 24.9736 69.7111 24.9736L46.3422 24.9736C44.7887 24.9736 43.5 26.2486 43.5 27.8158C43.5 28.3327 43.6387 28.8178 43.8809 29.2359C44.3752 30.0883 45.299 30.6579 46.3422 30.6579L63.7105 30.6578ZM70.0262 27.1841V35.3947C70.0262 35.6501 69.9827 35.8955 69.9026 36.124C69.7043 36.802 69.2567 37.3475 68.3589 37.5376C68.1851 37.5817 68.0031 37.6052 67.8157 37.6052C66.5968 37.6052 65.6052 36.6134 65.6052 35.3947V28.4473C65.6052 27.924 65.181 27.5 64.6579 27.5C64.1346 27.5 63.7105 27.924 63.7105 28.4473V28.7631L46.342 28.7631C46.2998 28.7631 46.2581 28.7605 46.2173 28.7551C45.8223 28.703 45.5035 28.4066 45.4176 28.0232C45.4026 27.9564 45.3947 27.887 45.3947 27.8158C45.3947 27.2902 45.8185 26.8684 46.342 26.8684L69.7111 26.8683C69.8906 26.8683 70.0262 27.1841 70.0262 27.1841Z" fill="black"/>
<path d="M2.89469 36.3682C2.89469 37.2389 3.60297 37.9472 4.47367 37.9472L23.5263 37.9454C24.397 37.9454 25.1053 37.2372 25.1053 36.3665V35.1035C25.1053 34.5803 25.5294 34.1562 26.0527 34.1562C26.5759 34.1562 27 34.5803 27 35.1035V36.3665C27 38.2818 25.4416 39.8399 23.5263 39.8399L4.47367 39.8419C2.55836 39.8419 1 38.2837 1 36.3682V35.1051C1 34.5818 1.4241 34.1577 1.94734 34.1577C2.47058 34.1577 2.89469 34.5818 2.89469 35.1051V36.3682Z" fill="black"/>
<path fill-rule="evenodd" clip-rule="evenodd" d="M15.0698 27.9567C14.6991 28.2413 14.4512 28.3041 14.0001 28.3289C14.3787 28.3416 14.7608 28.2169 15.0698 27.9567Z" fill="#D9D9D9"/>
<path fill-rule="evenodd" clip-rule="evenodd" d="M4.47378 19C2.55846 18.9999 1.0001 20.5581 1.0001 22.4736V31.3157C1.04462 31.5911 1.11091 31.7897 1.23001 31.9344C1.25575 31.9642 1.28332 31.9924 1.31254 32.0188C1.45487 32.1415 1.65624 32.2153 1.94745 32.263C2.52774 32.1726 2.75899 31.9985 2.89479 31.3157V22.4736C2.89479 22.3217 2.91635 22.1747 2.95655 22.0356L11.7099 29.4068C11.7806 29.4645 11.8491 29.5181 11.9161 29.5678C12.295 29.8417 12.7151 30.0301 13.1505 30.133C13.3976 30.1814 13.6725 30.2078 14.0001 30.2243C14.0053 30.2243 14.0105 30.2244 14.0156 30.2245C15.1963 30.1556 15.507 29.9042 16.2903 29.4058L25.0437 22.0353C25.0839 22.1744 25.1054 22.3214 25.1054 22.4732V31.3145C25.1054 31.8371 25.5305 32.2618 26.0528 32.2618C26.576 32.2618 27.0001 31.8218 27.0001 31.3145V22.4732C27.0001 20.558 25.4417 18.9999 23.5264 19H4.47378ZM12.9304 27.9576L4.54326 20.8948L23.4569 20.8946L15.0698 27.9567C14.7608 28.2169 14.3787 28.3416 14.0001 28.3289C13.6215 28.3416 13.2394 28.2178 12.9304 27.9576Z" fill="black"/>
</svg>
