<svg width="79" height="62" viewBox="0 0 79 62" fill="none" xmlns="http://www.w3.org/2000/svg">
<path d="M70.7368 30.0527H66.9473C65.7285 30.0527 64.7368 31.0445 64.7368 32.2632V33.5264C64.7368 34.7453 65.7286 35.7369 66.9473 35.7369H70.7368C71.9557 35.7369 72.9473 34.7452 72.9473 33.5264V32.2632C72.9473 31.0444 71.9557 30.0527 70.7368 30.0527ZM71.0526 33.5264C71.0526 33.7004 70.9111 33.8422 70.7368 33.8422H66.9473C66.7732 33.8422 66.6315 33.7005 66.6315 33.5264V32.2632C66.6315 32.0892 66.7731 31.9474 66.9473 31.9474H70.7368C70.911 31.9474 71.0526 32.0891 71.0526 32.2632V33.5264Z" fill="black"/>
<path d="M75.7895 40.7895C77.0084 40.7895 78 39.7977 78 38.579V18.3684C78 15.06 75.3083 12.3684 72 12.3684H48.9473V9.21051H53.6842C55.9479 9.21051 57.7895 7.36879 57.7895 5.1052C57.7895 2.84172 55.9479 1 53.6842 1H45.4737C44.2548 1 43.2632 1.99129 43.2632 3.20992V12.3685H41.6842C38.6979 12.3685 36.2143 14.5612 35.7589 17.4211H21.4737C19.5584 17.421 18 18.9793 18 20.8947V29.7368C18 30.2601 18.4241 30.6842 18.9473 30.6842C19.4706 30.6842 19.8947 30.26 19.8947 29.7368V20.8947C19.8947 20.7428 19.9162 20.5959 19.9564 20.4568L28.7098 27.828C30.0063 28.9198 31.8881 28.9199 33.1849 27.828L35.6842 25.7233V36.3685H21.4737C20.603 36.3685 19.8947 35.6602 19.8947 34.7895V33.5263C19.8947 33.0031 19.4706 32.579 18.9473 32.579C18.4241 32.579 18 33.0031 18 33.5263V34.7895C18 36.7049 19.5584 38.2632 21.4737 38.2632H35.6842V38.579C35.6842 39.7979 36.6759 40.7895 37.8947 40.7895H54.6315V59.1053H41.6842C41.1608 59.1053 40.7368 59.5295 40.7368 60.0527C40.7368 60.5759 41.1608 61 41.6842 61H58.1052C58.6286 61 59.0525 60.5758 59.0525 60.0527C59.0525 59.5294 58.6286 59.1053 58.1052 59.1053H56.5262V40.7895H62.2104V59.1053H61.8946C61.3712 59.1053 60.9472 59.5295 60.9472 60.0527C60.9472 60.5759 61.3713 61 61.8946 61H77.0524C77.5758 61 77.9998 60.5758 77.9998 60.0527C77.9998 59.5294 77.5758 59.1053 77.0524 59.1053H64.1053V40.7895H75.7895ZM35.6842 23.2463L31.9644 26.3787C31.3751 26.875 30.5196 26.875 29.9303 26.3787L21.5432 19.3159H35.6842V23.2463ZM45.1579 3.20992C45.1579 3.03613 45.2994 2.8948 45.4737 2.8948H53.6842C54.903 2.8948 55.8947 3.88656 55.8947 5.10531C55.8947 6.32418 54.9029 7.31582 53.6842 7.31582H46.7368C46.2135 7.31582 45.7895 7.74004 45.7895 8.26316C45.7895 8.78641 46.2135 9.21051 46.7368 9.21051H47.0527V26.579C47.0527 27.1014 46.6277 27.5263 46.1053 27.5263C45.5829 27.5263 45.158 27.1014 45.158 26.579L45.1579 3.20992ZM37.8947 38.8947C37.7206 38.8947 37.5789 38.753 37.5789 38.5789V18.3684C37.5789 16.1048 39.4205 14.263 41.6842 14.263H43.2632V26.5789C43.2632 28.146 44.5382 29.421 46.1053 29.421C47.6725 29.421 48.9475 28.1461 48.9475 26.5789V14.2632H72C73.9377 14.2632 75.5661 15.6126 75.995 17.421H55.579C55.0556 17.421 54.6316 17.8452 54.6316 18.3684C54.6316 18.8916 55.0556 19.3157 55.579 19.3157H76.1053V38.5789C76.1053 38.7529 75.9637 38.8947 75.7895 38.8947H37.8947Z" fill="black"/>
</svg>
