<svg width="346" height="115" viewBox="0 0 346 115" fill="none" xmlns="http://www.w3.org/2000/svg">
<g filter="url(#filter0_b_283_679)">
<path d="M1 12.5648C15.5 -8.43483 10.4173 3.91727 7.5 12.5649C-6.5 54.0648 12.5 6.1328 17.5 5.06294C24.5 3.56515 15.1016 20.7761 21.5002 14.0629C25.5 9.8665 26.5 5.56515 30.5002 5.06294C36 5.56515 25.5284 21.194 28 22.0179C31.0895 23.0478 46.8536 8.90597 45 10.5C40.057 13.8113 36.59 15.6947 37.605 19.987C39.5 28 51.2954 9.71011 48 12.5649C42.4391 22.6855 50.4796 23 52.4341 21.2229C55.1117 18.7884 57.7047 16.0889 61 10.5C62.1144 8.60997 53.3424 20.4706 57.1712 22.0179C61 23.5652 71.5593 10.2636 69 12.5649C62.4092 31.5132 83.6276 41.4144 53.6699 52.5003C22.9819 63.8564 85.8765 9.40597 85.5 10.5C76 17 77.1456 21.1456 79.5 22.0179C83.5 23.5 92.3834 13.0055 89.5 12.5649C88.6762 12.1537 85.9987 17.7225 89.5 21.2229C91.2775 23 93.5 22.0179 95.8915 18.5175" stroke="black" stroke-width="2" stroke-linecap="round"/>
<path fill-rule="evenodd" clip-rule="evenodd" d="M199.942 57.064C197.53 59.9173 194.74 61.9803 191.732 61.9803C189.22 61.9803 186.761 60.0766 185.666 57.7106C185.563 57.4878 185.471 57.2587 185.391 57.0244C184.696 57.8042 183.944 58.5743 183.16 59.2714C181.849 60.4373 180.384 61.4588 178.903 61.9328C177.48 62.3882 176.071 62.4016 175.039 61.7093C173.93 60.9649 173.606 59.657 173.883 58.2791C174.155 56.9227 175.013 55.3557 176.467 53.6755C177.045 53.0072 177.726 52.3122 178.515 51.5959C176.303 52.441 173.672 53.5023 171.094 54.6244C170.607 54.8367 170.122 55.0506 169.643 55.2653C169.474 55.7231 169.27 56.1795 169.041 56.6229C168.22 58.2089 166.984 59.7939 165.464 60.8837C163.935 61.9794 162.047 62.6184 160.02 62.118C159.541 62 158.969 61.7775 158.632 61.2761C158.223 60.6692 158.377 60.0239 158.611 59.5939C158.833 59.1852 159.197 58.8126 159.583 58.4837C159.983 58.1424 160.477 57.7899 161.034 57.4329C162.767 56.3219 165.293 55.0497 168.01 53.8091C168.173 53.1859 168.225 52.6422 168.171 52.2317C168.122 51.8554 168.001 51.7025 167.922 51.6408C167.849 51.5845 167.649 51.4778 167.151 51.5538C166.987 51.5788 166.703 51.6767 166.285 51.9138C165.878 52.144 165.399 52.4744 164.854 52.9044C163.764 53.7642 162.471 54.9741 161.058 56.4455C159.768 57.7884 158.391 59.3353 156.994 61.0084C156.419 63.8379 155.761 66.926 155.007 69.9605C153.713 75.1728 152.111 80.3445 150.1 83.8272C149.099 85.5601 147.929 86.9994 146.533 87.7622C145.051 88.5718 143.422 88.5602 141.772 87.5952L141.565 87.4742L141.435 87.2728C140.751 86.2077 140.775 84.7777 141.074 83.351C141.383 81.8776 142.037 80.1645 142.914 78.3321C144.672 74.6598 147.41 70.3419 150.413 66.2073C151.941 64.1029 153.546 62.0367 155.134 60.1172C155.332 59.137 155.521 58.1886 155.701 57.2849C155.815 56.7118 155.925 56.1566 156.032 55.6226C155.836 55.8126 155.636 56.0022 155.432 56.1907C153.882 57.6266 152.098 59.0381 150.355 60.124C148.642 61.1905 146.848 62.0192 145.305 62.1439C144.291 62.2258 143.409 62.1237 142.679 61.8061C141.927 61.4794 141.389 60.9468 141.059 60.2821C140.832 59.8262 140.712 59.3267 140.668 58.8099C138.956 60.3018 136.933 61.5836 134.737 62.1187C133.649 62.3837 132.479 62.2407 131.687 61.4263C130.885 60.6009 130.755 59.3799 131.115 58.1082C131.3 57.458 131.622 56.7458 132.102 55.9772C129.658 57.4918 127.029 59.0566 124.589 60.3792C120.292 62.7082 116.278 62.0885 113.609 61.3784C113.51 61.3519 113.412 61.3252 113.316 61.2985C112.756 61.6289 112.193 61.8907 111.67 61.9927C111.32 62.0611 110.89 62.0775 110.473 61.8984C110.021 61.7043 109.722 61.341 109.564 60.9195C109.473 60.6776 109.397 60.4236 109.369 60.174C109.341 59.9337 109.344 59.5803 109.545 59.2425C109.767 58.8685 110.116 58.6997 110.407 58.6372C110.671 58.5805 110.929 58.5988 111.125 58.6255C111.517 58.6789 111.994 58.8187 112.46 58.9594C112.55 58.9865 112.642 59.0143 112.735 59.0427C112.822 59.0691 112.91 59.0959 113 59.1231C114.275 58.2375 115.84 56.8625 117.369 55.4063C118.295 54.5247 119.194 53.6269 119.988 52.8133C118.837 52.7244 117.653 52.4029 116.618 52.0374C115.531 51.6531 114.552 51.1999 113.861 50.8494C112.515 52.9803 110.535 55.2385 108.667 57.1033C107.599 58.1701 106.55 59.1255 105.649 59.874C104.772 60.6026 103.97 61.191 103.413 61.4656C102.514 61.9078 101.632 62.1868 100.87 62.0142C100.44 61.9167 100.073 61.6798 99.8201 61.318C99.5833 60.9798 99.4907 60.5974 99.4606 60.2594C99.4019 59.6012 99.5578 58.8389 99.7731 58.1175C99.9956 57.3717 100.315 56.5628 100.666 55.7726C100.843 55.3726 101.031 54.9725 101.221 54.5821C100.073 54.8762 98.8665 54.8849 97.8068 54.667C97.2647 54.5556 96.7306 54.3801 96.237 54.1363C95.8711 55.4789 95.3391 56.9147 94.6399 58.1714C93.8626 59.5684 92.7986 60.8886 91.3925 61.4883C89.6858 62.2161 88.0143 62.0835 86.5914 61.3422C85.2115 60.6232 84.1166 59.3626 83.3988 57.8781C81.942 60.075 80.1206 62.2504 77.968 63.9563C75.1787 66.1667 71.7801 67.626 67.897 67.2321C65.8308 67.0224 64.2313 66.2945 63.2376 65.0263C62.2434 63.7577 61.9966 62.1286 62.2563 60.4146C62.7688 57.0334 65.2988 52.9114 69.1368 49.0216C76.8527 41.2015 90.3596 33.8089 105.844 34.7569C106.395 34.7906 106.815 35.2649 106.781 35.8161C106.747 36.3674 106.273 36.7869 105.722 36.7532C90.9301 35.8475 77.9603 42.9266 70.5605 50.4263C66.8407 54.1963 64.6533 57.9463 64.2337 60.7143C64.0275 62.075 64.261 63.0899 64.8118 63.7927C65.363 64.4962 66.373 65.0672 68.0989 65.2423C71.3213 65.5692 74.2163 64.3774 76.7259 62.3888C79.1063 60.5024 81.0917 57.9332 82.589 55.4057C82.0974 52.8084 82.5729 49.8442 84.5136 47.3854C84.8235 46.9928 85.1364 46.6585 85.4509 46.4394C85.6955 46.269 86.3542 45.8933 87.0166 46.3302C87.3081 46.5225 87.4532 46.7943 87.5257 46.9951C87.5991 47.1983 87.6266 47.4047 87.6359 47.5824C87.6547 47.9382 87.608 48.3485 87.5274 48.7714C87.2144 50.4137 86.2355 53.0126 84.7145 55.7231C84.8364 56.1569 84.9927 56.5737 85.1796 56.9664C85.7532 58.1716 86.5853 59.0838 87.5155 59.5685C88.4189 60.0391 89.4638 60.1365 90.6079 59.6486C91.4058 59.3083 92.1938 58.4543 92.8922 57.199C93.5756 55.9707 94.0975 54.4943 94.4319 53.1293C94.4642 52.9977 94.4945 52.8681 94.5228 52.7407C93.8175 51.776 93.5988 50.5419 94.0515 49.1838L94.1059 49.0207L94.2116 48.8851C94.3691 48.683 94.5775 48.4579 94.8449 48.3083C95.1428 48.1415 95.6131 48.0273 96.0794 48.2937C96.4624 48.5125 96.6248 48.8749 96.6959 49.079C96.7769 49.3118 96.8161 49.5647 96.8355 49.8012C96.8845 50.3999 96.828 51.199 96.6851 52.0849C97.0785 52.3616 97.597 52.582 98.2096 52.708C100.081 53.0928 102.205 52.4992 103.15 50.9733C103.254 50.8053 103.321 50.6955 103.357 50.6373C103.373 50.6099 103.389 50.5844 103.397 50.572L103.407 50.5562C103.42 50.5363 104.717 50.2197 105.181 51.4519C105.154 51.5177 105.117 51.5899 105.113 51.5983L105.106 51.609L105.098 51.6232L105.078 51.6562C105.075 51.6609 105.072 51.666 105.069 51.6715C104.996 51.7935 104.796 52.1292 104.526 52.6065C103.98 53.5701 103.157 55.0883 102.494 56.5834C102.162 57.3317 101.879 58.0554 101.69 58.6894C101.499 59.3295 101.432 59.7865 101.451 60.0589C101.495 60.0532 101.55 60.0434 101.619 60.0267C101.836 59.9741 102.135 59.8655 102.529 59.6712C102.855 59.5111 103.498 59.0611 104.371 58.3359C105.219 57.6307 106.223 56.717 107.254 55.688C109.172 53.7725 111.123 51.5159 112.341 49.5043C112.332 49.4267 112.327 49.3483 112.33 49.2859C112.376 49.0853 112.584 48.7341 112.736 48.598C112.865 48.5188 113.1 48.4329 113.198 48.4156C113.366 48.3944 113.499 48.4226 113.53 48.4292L113.532 48.4296C113.615 48.4473 113.68 48.4727 113.695 48.4786L113.696 48.4791C113.792 48.517 113.915 48.586 113.988 48.627L114.799 49.0828C115.431 49.4021 116.315 49.809 117.285 50.1516C118.425 50.5544 119.613 50.8424 120.625 50.8375C121.353 50.8339 121.901 50.6837 122.295 50.39C122.47 50.2015 122.611 50.0488 122.712 49.9391C122.737 49.9118 122.761 49.8856 122.783 49.8613C122.845 49.7932 122.894 49.7408 122.91 49.7235L122.922 49.7118C122.927 49.7065 122.942 49.6923 122.951 49.6833C122.974 49.6627 123.123 49.5551 123.261 49.4876C124.328 49.6998 124.522 50.8706 124.461 50.9744C124.445 50.9972 124.422 51.0292 124.414 51.0389L124.399 51.057L124.386 51.0722C124.378 51.0825 124.366 51.0956 124.356 51.1069L124.284 51.1881C124.093 51.4528 123.88 51.6789 123.649 51.871C123.473 52.0603 123.269 52.279 123.04 52.5216C121.986 53.6395 120.413 55.2691 118.748 56.8547C117.674 57.8773 116.543 58.8998 115.477 59.7581C117.767 60.1977 120.622 60.2545 123.636 58.6208C127.571 56.4882 132.031 53.699 135.386 51.5256C137.061 50.4405 138.456 49.512 139.366 48.9002C139.769 48.629 140.077 48.4203 140.271 48.288C140.325 48.2504 140.38 48.2128 140.435 48.1751L140.506 48.1263L140.517 48.1188L140.525 48.1135L140.533 48.1085L140.553 48.096C140.569 48.0862 140.706 48.0189 140.833 47.9777C141.953 48.4635 141.734 49.702 141.697 49.7325C141.687 49.7402 141.672 49.7513 141.667 49.7548L141.658 49.7616L141.644 49.7717C141.622 49.7868 141.561 49.8288 141.468 49.8926C141.447 49.9064 141.426 49.9213 141.402 49.9373C135.751 53.8381 133.543 56.8769 133.039 58.6538C132.791 59.5297 132.997 59.9049 133.121 60.0323C133.256 60.1707 133.601 60.337 134.263 60.1756C136.834 59.5492 139.272 57.6045 141.157 55.529C141.56 54.2859 142.152 53.0619 142.737 52.0772C143.072 51.5124 143.416 51.0079 143.736 50.6115C143.895 50.4137 144.058 50.2313 144.218 50.0782C144.367 49.9364 144.565 49.7711 144.796 49.6616C144.925 49.6003 145.545 49.3298 146.08 49.8081C146.32 50.0225 146.405 50.2843 146.435 50.45C146.466 50.6172 146.458 50.7679 146.445 50.8743C146.4 51.2599 146.209 51.7197 146 52.1429C145.551 53.0532 144.757 54.3033 143.715 55.6079C143.473 55.9112 143.215 56.2208 142.942 56.5325C142.935 56.5545 142.929 56.5764 142.923 56.5983C142.573 57.8609 142.569 58.827 142.85 59.3922C142.973 59.6389 143.16 59.8348 143.476 59.9719C143.812 60.1182 144.339 60.2154 145.144 60.1504C146.194 60.0655 147.651 59.4512 149.297 58.4262C150.913 57.4205 152.596 56.0917 154.073 54.7235C155.156 53.7206 156.107 52.7157 156.83 51.8223C156.971 51.2042 157.106 50.6582 157.234 50.1995C157.389 49.646 157.555 49.1442 157.742 48.7896C157.825 48.6331 157.98 48.3677 158.245 48.1815C158.396 48.0756 158.623 47.9669 158.91 47.9665C159.206 47.966 159.446 48.08 159.614 48.2107C160.348 48.7814 160.265 49.66 160.116 50.1897C159.954 50.7641 159.607 51.3911 159.186 52.0102C159.033 52.2347 158.864 52.4665 158.682 52.7041C158.508 53.4861 158.322 54.3857 158.12 55.3833C158.014 55.9077 157.905 56.4575 157.791 57.0289C158.412 56.3366 159.022 55.678 159.615 55.0602C161.063 53.5529 162.426 52.272 163.615 51.3341C164.21 50.8653 164.775 50.4701 165.298 50.1738C165.809 49.8842 166.338 49.6545 166.849 49.5766C167.702 49.4466 168.512 49.5675 169.148 50.0607C169.776 50.5484 170.062 51.267 170.154 51.9724C170.19 52.2487 170.199 52.5391 170.184 52.8393C170.222 52.8231 170.259 52.8068 170.296 52.7905C173.856 51.2413 177.514 49.8066 180.069 48.8828C181.338 48.4238 182.363 48.0807 182.971 47.9154C183.123 47.8739 183.27 47.838 183.397 47.815C183.459 47.8038 183.537 47.7918 183.62 47.7867L183.623 47.7865C183.673 47.7833 183.864 47.7712 184.075 47.8456C184.192 47.8868 184.434 47.9962 184.604 48.2681C184.796 48.5749 184.777 48.8931 184.715 49.1004C184.66 49.2819 184.568 49.4051 184.523 49.4605C184.47 49.525 184.419 49.5734 184.384 49.6045C184.273 49.7022 184.138 49.786 184.03 49.8488C181.262 51.7171 179.297 53.4617 177.979 54.9844C176.646 56.525 176.022 57.784 175.844 58.6727C175.669 59.5398 175.926 59.8961 176.153 60.0486C176.458 60.2533 177.142 60.3963 178.293 60.0279C179.387 59.678 180.605 58.8669 181.831 57.7769C183.008 56.7297 184.132 55.4799 185.085 54.284C185.109 54.0823 185.144 53.8798 185.19 53.6769C185.517 52.2505 186.393 50.9002 187.899 49.7664C187.967 49.7152 188.09 49.6284 188.25 49.5691C188.367 49.5258 188.842 49.3749 189.281 49.7287C189.682 50.0522 189.673 50.505 189.669 50.5983C189.664 50.7518 189.629 50.8833 189.606 50.9612C189.514 51.2633 189.307 51.6616 189.074 52.0624C188.63 52.8269 187.921 53.8853 187.044 55.0257C187.051 55.6504 187.206 56.2756 187.481 56.8707C188.328 58.7003 190.172 59.9803 191.732 59.9803C194.096 59.9803 196.674 58.0968 199.218 54.7723C199.248 54.733 199.278 54.6934 199.309 54.6537C199.271 54.4321 199.237 54.2081 199.208 53.9823C198.738 50.3601 199.26 45.8857 200.26 41.5795C201.264 37.2601 202.77 33.0198 204.337 29.8399C205.118 28.2542 205.932 26.8945 206.731 25.9149C207.129 25.4258 207.548 25.0012 207.983 24.6915C208.41 24.3872 208.931 24.1389 209.512 24.1389C210.191 24.1389 210.715 24.492 211.045 24.9877C211.342 25.4352 211.487 25.9958 211.558 26.5512C211.703 27.6763 211.595 29.1902 211.315 30.9007C210.751 34.3501 209.433 38.9022 207.615 43.4322C205.944 47.5941 203.828 51.7919 201.442 55.1287C202.022 57.611 203.216 59.135 205.06 59.5987C207.956 60.3266 211.212 59.7797 214.384 58.4303C213.926 56.8956 214.09 55.0419 214.972 53.1632C216.461 49.9908 219.332 48.5702 221.816 48.1844C223.056 47.9919 224.253 48.0465 225.204 48.299C225.678 48.4247 226.132 48.6104 226.505 48.8738C226.872 49.1335 227.241 49.5292 227.359 50.085L227.42 50.3731C227.471 50.3531 227.524 50.3356 227.58 50.3216C227.933 50.233 228.3 50.3078 228.59 50.5312C228.839 50.723 228.965 50.9719 229.03 51.145C229.147 51.4553 229.178 51.8116 229.17 52.1472C229.433 52.1713 229.738 52.1808 230.08 52.1692C230.932 52.1403 231.888 51.9845 232.749 51.7046C233.625 51.4197 234.313 51.0356 234.72 50.6098C235.101 50.2104 235.734 50.1957 236.134 50.577C236.533 50.9584 236.548 51.5914 236.166 51.9908C235.44 52.7517 234.403 53.2699 233.368 53.6066C232.317 53.9482 231.175 54.1332 230.148 54.1681C229.692 54.1835 229.229 54.1704 228.792 54.1184C228.184 55.9747 226.772 58.3572 224.088 60.3087C221.1 62.4824 218.014 62.5722 216.005 60.91C215.748 60.6979 215.517 60.4631 215.311 60.2086C211.835 61.7125 208.069 62.4173 204.573 61.5383C202.211 60.9446 200.761 59.2514 199.942 57.064ZM217.2 59.3008C217.227 59.3242 217.253 59.347 217.28 59.3692C218.364 60.2659 220.401 60.5176 222.912 58.6913C225.262 56.9821 226.431 54.9308 226.906 53.4505C226.695 53.28 226.503 53.0558 226.383 52.7618C226.282 52.5164 226.251 52.2724 226.27 52.0391C224.003 54.7225 220.82 57.3669 217.312 59.2417C217.275 59.2615 217.238 59.2812 217.2 59.3008ZM216.226 57.5537C216.273 57.5286 216.321 57.5032 216.369 57.4777C219.835 55.6258 222.958 52.9681 225.066 50.3566C224.963 50.3137 224.838 50.271 224.691 50.2321C224.047 50.0612 223.134 50.0039 222.123 50.1608C220.107 50.4738 217.916 51.5973 216.782 54.013C216.136 55.3895 216.018 56.5955 216.226 57.5537ZM201.055 52.1119C202.824 49.2972 204.427 46.0041 205.759 42.6871C207.537 38.2568 208.806 33.8485 209.342 30.5776C209.612 28.928 209.682 27.6418 209.575 26.8067C209.532 26.4734 209.467 26.2727 209.417 26.1643C209.356 26.1879 209.266 26.2333 209.143 26.3207C208.905 26.4904 208.614 26.7697 208.281 27.1784C207.616 27.9945 206.879 29.2062 206.131 30.7237C204.64 33.7502 203.182 37.8433 202.208 42.0321C201.386 45.5733 200.925 49.1192 201.055 52.1119ZM158.22 49.4996C158.22 49.4996 158.221 49.5045 158.219 49.5166C158.219 49.5061 158.22 49.4996 158.22 49.4996ZM103.384 50.5932L103.382 50.5956C103.384 50.592 103.385 50.5902 103.384 50.5932ZM86.626 48.0603C86.626 48.0603 86.6201 48.0645 86.6094 48.0701C86.6209 48.0625 86.626 48.0603 86.626 48.0603ZM111.356 59.9484C111.356 59.9453 111.355 59.9439 111.355 59.9439C111.355 59.9439 111.356 59.945 111.356 59.9472M154.229 64.4505C153.487 65.4105 152.751 66.3918 152.031 67.3827C149.065 71.466 146.403 75.6749 144.718 79.1958C143.873 80.96 143.294 82.51 143.032 83.7611C142.8 84.867 142.85 85.5794 143.019 85.9989C143.992 86.4919 144.804 86.4274 145.574 86.0071C146.49 85.5062 147.434 84.445 148.368 82.8271C150.227 79.6084 151.775 74.6777 153.066 69.4786C153.483 67.8014 153.869 66.1084 154.229 64.4505ZM166.736 56.6163C164.91 57.4999 163.297 58.3578 162.114 59.1166C161.6 59.4457 161.187 59.7439 160.88 60.0056C160.792 60.0811 160.717 60.1497 160.653 60.2112C161.902 60.4668 163.142 60.0872 164.298 59.2583C165.237 58.5851 166.077 57.6427 166.736 56.6163Z" fill="black"/>
<path fill-rule="evenodd" clip-rule="evenodd" d="M120.419 55.5718C118.488 55.8158 116.514 56.0652 114.5 56.0652C113.948 56.0652 113.5 55.6175 113.5 55.0652C113.5 54.5129 113.948 54.0652 114.5 54.0652C116.387 54.0652 118.253 53.8294 120.223 53.5806L120.283 53.5731C122.256 53.3239 124.326 53.0652 126.5 53.0652C127.052 53.0652 127.5 53.5129 127.5 54.0652C127.5 54.6175 127.052 55.0652 126.5 55.0652C124.47 55.0652 122.52 55.3065 120.534 55.5573C120.495 55.5621 120.457 55.567 120.419 55.5718Z" fill="black"/>
<path fill-rule="evenodd" clip-rule="evenodd" d="M332.473 77.9373C331.968 78.9445 331.567 79.7533 331.317 80.2749C330.514 81.9535 328.829 84.3801 326.889 86.382C325.922 87.3794 324.92 88.2426 323.962 88.8499C322.989 89.4674 322.154 89.7615 321.5 89.7615C320.974 89.7615 320.343 89.452 319.811 88.7849C319.37 88.2318 319.05 87.4895 318.965 86.6629C321.114 85.0019 323.211 83.2298 324.65 81.8801C325.402 81.1748 326.023 80.5396 326.367 80.0815C326.455 79.9639 326.546 79.8305 326.617 79.6909C326.668 79.5919 326.803 79.3195 326.772 78.98C326.753 78.7741 326.671 78.5264 326.467 78.3199C326.272 78.1224 326.046 78.0442 325.886 78.0143C325.604 77.9618 325.351 78.0254 325.228 78.0603C319.644 79.6425 317.229 82.6694 316.967 85.6724C315.439 86.8256 313.934 87.8784 312.675 88.638C311.993 89.0497 311.406 89.3609 310.941 89.5562C310.788 89.6206 310.663 89.6657 310.563 89.6973C310.587 89.5483 310.632 89.3537 310.704 89.1068C310.943 88.2974 311.374 87.2867 311.852 86.1664C311.97 85.8881 312.092 85.6031 312.214 85.3127C312.798 83.924 313.407 82.3912 313.581 81.149C313.668 80.5337 313.674 79.8291 313.378 79.2176C313.046 78.5319 312.426 78.1413 311.665 78.0355C309.236 77.5535 307.012 78.5992 305.168 80.128C305.046 79.2963 304.79 78.4975 304.35 77.7876C304.111 77.4007 303.715 77.1313 303.218 77.1049C302.804 77.0828 302.441 77.2386 302.188 77.3801C301.672 77.6677 301.116 78.1811 300.573 78.7445C299.771 79.5757 298.812 80.7173 297.794 81.9289C297.406 82.3902 297.01 82.8617 296.61 83.3301C295.133 85.0629 293.585 86.7887 292.117 88.0364C291.383 88.6596 290.702 89.1353 290.088 89.4337C289.469 89.7344 288.993 89.8194 288.635 89.7706C287.822 89.6598 287.276 89.2239 286.906 88.5332C286.557 87.8835 286.37 87.005 286.358 86.0088C288.019 84.2263 289.307 82.4174 289.948 81.0726C290.118 80.7143 290.256 80.3619 290.339 80.0328C290.416 79.7271 290.475 79.3292 290.369 78.9381C290.312 78.7267 290.201 78.4992 290.006 78.3065C289.807 78.1112 289.57 77.999 289.335 77.948C288.905 77.8546 288.479 77.9622 288.149 78.0861C286.902 78.5539 285.99 79.7853 285.397 81.0764C284.836 82.2979 284.474 83.754 284.381 85.1823C282.596 87.0009 280.409 88.7438 278.123 89.8338C277.014 90.209 276.442 90.0948 276.189 89.9423C275.975 89.8132 275.714 89.481 275.708 88.6143C275.696 86.8412 276.802 83.8036 279.329 80.0594L279.412 79.9362L279.456 79.7941C279.518 79.5934 279.571 79.3484 279.557 79.0904C279.543 78.8176 279.446 78.4632 279.139 78.1894C278.846 77.9277 278.505 77.8694 278.272 77.8651C278.039 77.8608 277.817 77.9074 277.633 77.9603C276.939 78.16 275.977 78.7036 274.943 79.3505C273.731 80.108 272.223 81.1379 270.61 82.2387C269.417 83.053 268.167 83.9062 266.938 84.7167C263.976 86.6714 261.115 88.394 259.085 89.0741C258.587 89.2408 258.178 89.3311 257.855 89.3564C257.528 89.3821 257.354 89.3359 257.274 89.2971C257.274 89.2968 257.273 89.2965 257.272 89.2961C257.243 89.283 257.029 89.1867 257.044 88.48C261.063 83.9021 266.131 75.5548 269.765 68.722C271.621 65.232 273.129 62.087 273.946 59.9907C274.151 59.4647 274.318 58.9914 274.437 58.587C274.55 58.2014 274.639 57.8105 274.649 57.4755C274.653 57.3165 274.644 57.0631 274.531 56.8078C274.393 56.4956 274.095 56.191 273.64 56.1268C273.281 56.0762 272.987 56.2034 272.835 56.2825C272.661 56.3733 272.498 56.4938 272.355 56.6151L272.248 56.7055L272.17 56.822C266.129 65.828 261.965 72.5906 259.262 77.5852C256.726 82.2729 255.411 85.5175 255.112 87.6385C254.48 88.3258 253.898 88.8834 253.377 89.298C252.669 89.8615 252.048 89.9369 251.441 89.7837C250.765 89.6128 250.024 89.1324 249.227 88.4052C248.439 87.687 247.683 86.8118 246.951 85.9531C246.909 85.904 246.867 85.8547 246.825 85.8054C246.477 85.397 246.126 84.9845 245.782 84.6093C246.725 83.9283 247.773 83.119 248.754 82.3568C248.904 82.2404 249.052 82.1254 249.197 82.0121C250.386 81.0869 251.424 80.2794 252.059 79.8518C252.46 79.5819 252.862 79.1638 252.951 78.5799C253.05 77.9334 252.721 77.4147 252.318 77.1085C251.589 76.5547 250.436 76.4815 249.261 76.7498C248.155 77.0023 246.862 77.5865 245.474 78.6375C246.288 77.0134 247.132 75.3279 247.973 73.6437C251.468 68.6455 254.548 62.8498 256.355 56.6486C256.444 56.4534 256.535 56.25 256.573 56.1262L256.573 56.1249C256.579 56.1045 256.603 56.0267 256.613 55.9282L256.613 55.9272C256.617 55.8901 256.633 55.7416 256.585 55.5613C256.559 55.4627 256.497 55.2909 256.344 55.1294C256.172 54.9474 255.94 54.8399 255.698 54.8202C255.325 54.7898 255.07 54.9774 255.03 55.0067L255.027 55.0089C254.95 55.0648 254.898 55.1196 254.877 55.1424C254.83 55.193 254.797 55.2391 254.784 55.2571C254.732 55.3302 254.676 55.4265 254.632 55.5041L254.571 55.6106L254.538 55.7286C254.517 55.8013 254.497 55.874 254.476 55.9466C253.542 57.955 249.931 65.2469 246.25 72.6173C242.698 77.6733 238.701 81.8993 235.197 84.8552C233.437 86.3398 231.817 87.4903 230.455 88.2638C229.051 89.0612 228.055 89.3792 227.5 89.3792C227.254 89.3792 227.164 89.3252 227.144 89.3109C227.129 89.3008 227.089 89.2712 227.052 89.151C226.957 88.8506 226.967 88.2764 227.185 87.4106C227.593 85.7858 228.567 83.7444 229.449 82.1685C230.052 81.6272 230.576 80.9669 230.911 80.2265C230.985 80.0636 231.048 79.9115 231.092 79.7798C231.113 79.7165 231.139 79.6293 231.155 79.5328C231.163 79.4844 231.173 79.4108 231.172 79.3231C231.171 79.2466 231.162 79.0854 231.081 78.904C230.987 78.6934 230.789 78.4534 230.459 78.3497C230.17 78.2589 229.928 78.3207 229.815 78.36C229.607 78.4321 229.468 78.5565 229.429 78.591L229.427 78.5924C229.316 78.6916 229.215 78.8141 229.14 78.9099C228.841 79.2937 228.38 80.0093 227.884 80.8744C227.405 81.2557 226.866 81.5461 226.351 81.7075C225.779 81.887 225.319 81.8828 225.012 81.7732C224.754 81.6812 224.508 81.4854 224.361 80.9999C224.199 80.468 224.161 79.5851 224.475 78.2161L224.5 78.1057V77.9924C224.5 77.7443 224.406 77.3356 224.003 77.0832C223.677 76.8794 223.352 76.916 223.233 76.935C222.973 76.9765 222.735 77.1014 222.592 77.181C222.256 77.3692 221.822 77.6777 221.347 78.0468C221.25 78.1218 221.15 78.2005 221.047 78.2826C221.048 78.1279 221.014 77.9583 220.921 77.781C220.7 77.3569 220.289 77.2295 220.179 77.1963C219.866 77.1016 219.467 77.0875 219.124 77.0892C218.376 77.093 217.306 77.1871 216.144 77.3148C214.972 77.4437 213.664 77.612 212.426 77.7725L212.163 77.8067C211.197 77.9321 210.286 78.0503 209.517 78.1406C208.875 77.7509 208.085 77.8092 207.365 78.0912C207.235 78.142 207.106 78.1975 206.993 78.2583C206.936 78.2885 206.864 78.3306 206.791 78.3856C206.733 78.4296 206.597 78.5377 206.491 78.7187C206.364 78.9366 206.256 79.3272 206.473 79.7286C206.642 80.0411 206.912 80.1632 207.001 80.1998C207.2 80.2823 207.4 80.2951 207.481 80.2998C207.739 80.315 208.128 80.2928 208.582 80.2517C208.585 80.285 208.588 80.3206 208.591 80.3588C208.612 80.714 208.566 81.1891 208.43 81.7588C208.159 82.8955 207.564 84.2737 206.679 85.5753C204.89 88.208 202.135 90.2484 198.809 89.7718C196.71 89.471 195.874 88.6473 195.571 87.8382C195.255 86.9954 195.385 85.8387 195.968 84.5505C198.385 82.9671 200.42 81.6283 201.677 80.6759C202.005 80.4278 202.293 80.1959 202.528 79.9847C202.751 79.7847 202.976 79.5599 203.133 79.3253C203.21 79.2098 203.313 79.03 203.36 78.8031C203.412 78.5504 203.397 78.2028 203.167 77.8884C202.959 77.6047 202.678 77.49 202.504 77.4414C202.323 77.3907 202.145 77.3792 202 77.3792C200.461 77.3792 198.884 78.2004 197.574 79.2837C196.313 80.3267 195.178 81.7113 194.412 83.1785C191.189 85.2896 187.258 87.8651 183.402 90.6426C184.765 87.0212 186.04 83.8389 187.199 81.7895C187.974 81.3309 188.629 80.9278 189.125 80.5978C189.396 80.4176 189.633 80.2498 189.822 80.1C189.97 79.9815 190.213 79.7811 190.36 79.533L190.793 78.8036L190.144 78.2573C189.765 77.9381 189.3 77.7399 188.776 77.7549C188.273 77.7693 187.835 77.9761 187.479 78.2329C186.847 78.6889 186.269 79.4499 185.736 80.3298C183.554 81.6067 180.5 83.2988 177.176 85.1405C176.542 85.4915 175.899 85.8479 175.25 86.2079C175.284 86.1685 175.319 86.129 175.353 86.0895C177.022 84.1509 178.374 82.1052 178.96 80.0942C179.291 78.9591 179.355 77.9351 179.033 77.0762C178.693 76.1676 177.989 75.6176 177.172 75.335C176.39 75.0642 175.478 75.025 174.569 75.0973C173.843 75.1549 173.071 75.2876 172.291 75.4665C172.589 75.2137 172.872 74.958 173.134 74.7011C173.639 74.205 174.091 73.6803 174.423 73.1407C174.75 72.6074 175 71.9928 175 71.3364C175 70.1779 174.488 69.2917 173.605 68.7882C172.801 68.3302 171.81 68.2566 170.9 68.3486C169.084 68.5321 166.981 69.4407 165.793 70.6293C165.637 70.7853 165.515 70.9758 165.423 71.1352C165.323 71.3078 165.223 71.5094 165.123 71.729C164.923 72.1687 164.699 72.7332 164.455 73.3918C163.969 74.7114 163.382 76.4733 162.724 78.5084C162.307 79.7972 161.861 81.1974 161.391 82.6714C160.372 85.8701 159.242 89.4164 158.061 92.9251C156.334 98.0533 154.517 103.044 152.808 106.679C151.949 108.503 151.144 109.93 150.42 110.856C150.057 111.32 149.751 111.61 149.51 111.767C149.394 111.843 149.311 111.876 149.26 111.89C149.214 111.902 149.194 111.898 149.189 111.897C148.647 111.793 148.123 112.148 148.018 112.69C147.914 113.233 148.269 113.757 148.811 113.861C149.484 113.991 150.101 113.77 150.604 113.442C151.102 113.117 151.564 112.639 151.995 112.088C152.859 110.984 153.74 109.395 154.617 107.53C155.621 105.395 156.653 102.826 157.675 100.06L158.012 99.8592L157.849 99.5861C157.849 99.5861 157.849 99.5861 157.849 99.5861C158.012 99.8592 158.012 99.8593 158.012 99.8592L158.031 99.8477L158.084 99.8161C158.13 99.7884 158.197 99.7476 158.285 99.6942C158.459 99.5876 158.714 99.4308 159.036 99.2286C159.68 98.8243 160.595 98.2381 161.683 97.5081C163.838 96.0616 166.683 94.0432 169.448 91.7504C172.248 90.1576 175.265 88.4859 178.101 86.9145C180.259 85.7188 182.312 84.5812 184.085 83.5804C182.921 86.1846 181.699 89.4616 180.457 92.8196C176.358 95.9361 172.526 99.2567 170.02 102.444C167.526 105.615 166.039 109.06 167.69 112.08L167.716 112.128L167.747 112.172C168.309 112.979 168.969 113.59 169.758 113.864C170.585 114.15 171.396 114.014 172.118 113.632C172.813 113.264 173.446 112.662 174.024 111.952C174.609 111.233 175.18 110.35 175.738 109.358C177.891 105.53 180.046 99.6978 182.059 94.253C182.083 94.1891 182.106 94.1253 182.13 94.0616C185.904 91.2191 189.931 88.5174 193.437 86.2105C193.352 87.0038 193.419 87.7954 193.698 88.5396C194.343 90.262 195.982 91.3871 198.525 91.7516C202.935 92.3836 206.339 89.6339 208.334 86.6994C209.341 85.2174 210.043 83.6177 210.376 82.2224C210.542 81.5261 210.624 80.8466 210.587 80.2388C210.583 80.169 210.577 80.0984 210.569 80.0275C211.148 79.9553 211.773 79.8741 212.414 79.7908L212.684 79.7559C213.923 79.5951 215.212 79.4293 216.363 79.3028C217.229 79.2076 217.993 79.1374 218.588 79.1065L217.617 81.3123C215.389 83.434 212.97 86.0229 211.786 87.9824C211.481 88.488 211.226 89.0014 211.09 89.4888C210.96 89.9532 210.889 90.573 211.206 91.1359C211.549 91.744 212.165 91.9834 212.736 92.0482C213.298 92.112 213.971 92.0313 214.73 91.8526L215.215 91.7382L219.285 82.4873C220.375 81.4616 221.415 80.5525 222.239 79.8904C222.227 80.5219 222.296 81.0861 222.447 81.5824C222.765 82.6269 223.441 83.3361 224.34 83.6568C225.006 83.8948 225.724 83.8942 226.403 83.757C225.923 84.8148 225.498 85.918 225.245 86.9231C225.008 87.8656 224.875 88.8976 225.144 89.7513C225.287 90.2082 225.556 90.6426 226.001 90.9523C226.44 91.2578 226.96 91.3792 227.5 91.3792C228.605 91.3792 229.987 90.8294 231.443 90.0029C232.94 89.1525 234.661 87.9233 236.486 86.384C238.258 84.89 240.142 83.0912 242.03 81.0388C241.32 82.4507 240.654 83.7702 240.06 84.9456C239.401 86.0207 238.745 87.2235 238.099 88.567C237.665 89.4691 237.404 90.0241 237.303 90.2611L237.3 90.2673C237.285 90.3021 237.237 90.414 237.211 90.5206C237.205 90.5439 237.195 90.5903 237.188 90.6494L237.188 90.6519C237.184 90.6873 237.166 90.8486 237.222 91.042C237.254 91.1513 237.331 91.3478 237.525 91.5167C237.742 91.7063 238.005 91.7735 238.232 91.7622C238.568 91.7456 238.784 91.5649 238.814 91.54L238.816 91.538C238.922 91.4519 238.987 91.3605 238.992 91.3541C239.013 91.3256 239.03 91.3004 239.04 91.2853C239.098 91.1949 239.187 91.0319 239.279 90.8598C239.67 90.1278 240.551 88.4034 241.714 86.1057C241.759 86.1411 241.808 86.1742 241.861 86.2044C242.188 86.3913 242.517 86.372 242.691 86.3475C243.044 86.2977 243.41 86.1256 243.705 85.9678C243.832 85.8999 243.965 85.8237 244.103 85.7407C244.472 86.1277 244.89 86.6179 245.371 87.1828L245.429 87.2507C246.152 88.0982 246.985 89.0677 247.879 89.8831C248.764 90.6895 249.799 91.4317 250.952 91.7228C252.174 92.0315 253.435 91.8082 254.623 90.8629C254.883 90.6562 255.148 90.4258 255.418 90.1743C255.633 90.5597 255.952 90.8785 256.401 91.0963C256.91 91.3437 257.476 91.3924 258.012 91.3503C258.553 91.3079 259.131 91.1679 259.72 90.9705C262.037 90.1946 265.107 88.3213 268.04 86.3861C269.338 85.5297 270.608 84.6625 271.801 83.8477C273.371 82.7751 274.809 81.7932 276.003 81.0462C276.193 80.9273 276.373 80.8173 276.542 80.7163C274.683 83.8316 273.695 86.6069 273.708 88.6276C273.716 89.8462 274.101 91.0177 275.155 91.6542C276.166 92.2649 277.469 92.1773 278.828 91.7063L278.879 91.6887L278.927 91.6657C280.966 90.7029 282.888 89.3019 284.545 87.7978C284.672 88.3925 284.866 88.9619 285.143 89.4781C285.775 90.6574 286.836 91.544 288.365 91.7523C289.257 91.8738 290.145 91.6296 290.962 91.2324C291.784 90.8329 292.61 90.2421 293.412 89.5606C295.014 88.199 296.652 86.3634 298.132 84.6277C298.562 84.123 298.977 83.6292 299.375 83.1559C300.372 81.9693 301.262 80.9114 302.012 80.1329C302.376 79.7556 302.668 79.4868 302.892 79.3122C303.201 80.0491 303.31 80.9761 303.233 82.0313C301.619 83.8744 300.325 86.0077 299.495 87.6583C299.061 88.5198 298.739 89.2803 298.562 89.824C298.483 90.068 298.399 90.3684 298.391 90.6336C298.389 90.7083 298.391 90.8217 298.42 90.9503C298.447 91.0687 298.518 91.2983 298.728 91.4969C298.87 91.6313 299.034 91.7126 299.198 91.7521C299.534 91.9124 299.9 91.93 300.235 91.8502C300.646 91.752 301.003 91.514 301.287 91.2726C301.865 90.7811 302.441 90.0145 302.956 89.1431C303.943 87.47 304.856 85.149 305.154 82.8891C307.108 80.807 309.235 79.5801 311.3 80.0022L311.338 80.0099L311.376 80.0147C311.506 80.0309 311.554 80.0607 311.561 80.0655C311.564 80.0667 311.569 80.0695 311.578 80.0894C311.616 80.1673 311.668 80.3938 311.601 80.8703C311.468 81.8116 310.973 83.105 310.37 84.5372C310.262 84.7956 310.15 85.0586 310.037 85.3231C309.555 86.4522 309.062 87.608 308.786 88.5407C308.621 89.101 308.485 89.7302 308.556 90.286C308.594 90.5818 308.699 90.9277 308.957 91.2238C309.226 91.5335 309.581 91.6945 309.94 91.7498C310.525 91.8398 311.18 91.6251 311.715 91.4004C312.307 91.152 312.987 90.786 313.709 90.3504C314.768 89.7109 315.969 88.8904 317.197 87.9932C317.422 88.7592 317.787 89.454 318.248 90.0318C319.043 91.0291 320.201 91.7615 321.5 91.7615C322.7 91.7615 323.918 91.2467 325.034 90.5388C326.166 89.8208 327.29 88.8423 328.325 87.7739C329.225 86.8457 330.078 85.8279 330.83 84.8172C330.775 85.167 330.726 85.5076 330.686 85.838C330.55 86.9579 330.5 87.9891 330.57 88.8781C330.639 89.7487 330.829 90.5838 331.255 91.2291C331.72 91.9345 332.436 92.3574 333.334 92.3665C334.154 92.3747 335.034 92.0388 335.945 91.4935C337.778 90.3971 340.176 88.1859 343.254 84.6573C343.617 84.2412 343.574 83.6095 343.158 83.2464C342.741 82.8834 342.11 82.9264 341.747 83.3426C338.694 86.8417 336.467 88.8507 334.919 89.7771C334.139 90.2433 333.638 90.3694 333.355 90.3666C333.15 90.3645 333.04 90.3033 332.924 90.1276C332.768 89.8919 332.621 89.4491 332.564 88.7211C332.508 88.0115 332.544 87.1236 332.671 86.0799C332.923 84.015 333.517 81.4533 334.34 78.6767C334.779 77.8026 335.294 76.7803 335.859 75.6611C338.002 71.4139 340.849 65.7695 342.868 61.5203C343.51 60.1683 344.073 58.9499 344.503 57.958C344.924 56.9891 345.247 56.1723 345.38 55.656C345.413 55.5251 345.447 55.3671 345.457 55.2084C345.462 55.1294 345.463 55.0124 345.439 54.8804C345.415 54.7577 345.352 54.5272 345.154 54.3212C344.922 54.081 344.62 53.9904 344.354 54.0008C344.127 54.0097 343.954 54.088 343.864 54.1356C343.683 54.2313 343.538 54.3653 343.444 54.4578C343.059 54.8384 342.473 55.6311 341.671 56.8198C338.667 61.2744 334.761 70.2802 332.473 77.9373ZM244.238 83.2545C245.223 82.5597 246.395 81.6574 247.527 80.7776C247.678 80.6602 247.828 80.5429 247.978 80.4265C248.859 79.7408 249.701 79.0853 250.361 78.6033C250.172 78.6137 249.954 78.6431 249.706 78.6996C248.324 79.0153 246.183 80.1528 243.82 83.0623C243.967 83.1135 244.107 83.1798 244.238 83.2545ZM239.125 91.0889C239.124 91.0903 239.125 91.0884 239.127 91.0825C239.126 91.0859 239.125 91.0881 239.125 91.0889ZM215.267 86.6527C214.534 87.5122 213.917 88.3231 213.498 89.0166C213.236 89.4496 213.083 89.7869 213.016 90.0266C213.013 90.0402 213.009 90.053 213.006 90.0652C213.176 90.0783 213.432 90.0664 213.793 90.0043L215.267 86.6527ZM179.128 96.4018C176.1 98.8557 173.437 101.334 171.592 103.68C169.163 106.768 168.447 109.232 169.419 111.074C169.837 111.66 170.18 111.893 170.413 111.974C170.616 112.044 170.849 112.041 171.183 111.864C171.544 111.673 171.977 111.298 172.472 110.689C172.961 110.089 173.47 109.311 173.995 108.377C175.699 105.346 177.43 100.947 179.128 96.4018ZM168.305 90.0996C170.326 88.4152 172.272 86.6023 173.837 84.7846C175.431 82.9333 176.571 81.1443 177.04 79.5342C177.312 78.6023 177.268 78.0658 177.16 77.7777C177.071 77.5392 176.896 77.3557 176.518 77.2251C176.107 77.0826 175.508 77.0289 174.727 77.091C173.958 77.152 173.082 77.319 172.155 77.5582C168.772 78.4315 165.052 80.1752 164.148 80.6108C163.877 81.4564 163.595 82.3419 163.303 83.2576C162.282 86.4637 161.142 90.0392 159.956 93.5633C159.731 94.2309 159.504 94.8976 159.276 95.5607C159.314 95.5349 159.352 95.509 159.39 95.4831C161.561 94.01 164.79 92.1012 168.305 90.0996ZM165.033 77.8738C165.998 77.3398 167.207 76.6372 168.399 75.8531C169.655 75.0265 170.857 74.1335 171.733 73.2738C172.171 72.844 172.502 72.447 172.718 72.0944C172.938 71.7356 173 71.4876 173 71.3364C173 70.8379 172.825 70.6455 172.614 70.5259C172.324 70.3606 171.815 70.2663 171.101 70.3385C169.674 70.4826 168.037 71.2236 167.221 72.0301C167.216 72.0375 167.194 72.0678 167.156 72.1337C167.099 72.2319 167.028 72.3716 166.943 72.5587C166.772 72.9326 166.568 73.4439 166.332 74.0841C165.96 75.0914 165.524 76.3781 165.033 77.8738ZM202.027 79.38C202.027 79.3801 202.026 79.38 202.024 79.3798ZM207.578 78.3013C207.578 78.3012 207.584 78.3016 207.594 78.303C207.583 78.3022 207.578 78.3015 207.578 78.3013ZM258.784 82.9868C259.361 81.7177 260.098 80.2425 261.021 78.537C263.123 74.6529 266.14 69.6518 270.287 63.2914C269.626 64.6577 268.853 66.1773 267.999 67.7829C265.332 72.7992 261.93 78.5502 258.784 82.9868ZM287.652 81.1035C287.622 81.1529 287.591 81.2029 287.559 81.2535C287.59 81.202 287.621 81.152 287.652 81.1035ZM322.003 81.5792C321.425 82.0863 320.79 82.6264 320.122 83.1786C320.58 82.6269 321.195 82.0842 322.003 81.5792ZM325.771 79.985C325.782 79.9829 325.787 79.9813 325.787 79.9811C325.787 79.9809 325.782 79.9818 325.773 79.9845C325.772 79.9847 325.772 79.9848 325.771 79.985ZM204.72 71.5C204.656 71.4872 204.59 71.4804 204.522 71.4804C203.97 71.4804 203.522 71.9281 203.522 72.4804C203.522 72.8331 203.548 73.1556 203.617 73.4175C203.648 73.5359 203.711 73.7357 203.854 73.9214C204.007 74.1211 204.417 74.4767 205 74.307C205.422 74.184 205.615 73.8525 205.668 73.7562C205.748 73.6112 205.796 73.4621 205.826 73.341C205.889 73.0912 205.918 72.7957 205.918 72.4804C205.918 71.9281 205.47 71.4804 204.918 71.4804C204.85 71.4804 204.784 71.4872 204.72 71.5ZM193.045 72.2118C193.412 72.6246 193.375 73.2567 192.962 73.6236C192.857 73.7169 192.754 73.8122 192.648 73.9111L192.639 73.9194C192.538 74.0129 192.431 74.1122 192.328 74.2035C192.15 74.3608 191.855 74.615 191.523 74.7428C191.338 74.8138 191.031 74.8897 190.683 74.7832C190.311 74.6695 190.082 74.4077 189.955 74.1746C189.746 73.7885 189.715 73.2955 189.715 72.8762C189.715 72.3239 190.163 71.8762 190.715 71.8762C191.031 71.8762 191.313 72.023 191.497 72.2522C191.541 72.2115 191.587 72.1702 191.634 72.1288C192.046 71.7618 192.678 71.799 193.045 72.2118ZM208.677 71.8958C208.34 71.8281 207.977 71.9363 207.732 72.2118C207.412 72.5715 207.147 73.009 207.117 73.4943C207.101 73.7493 207.151 74.0516 207.34 74.323C207.535 74.603 207.827 74.7742 208.138 74.8249C208.738 74.9224 209.217 74.5801 209.473 74.236C209.749 73.8658 209.875 73.3898 209.875 72.8762C209.875 72.3239 209.427 71.8762 208.875 71.8762C208.807 71.8762 208.741 71.8829 208.677 71.8958Z" fill="black"/>
</g>
<defs>
<filter id="filter0_b_283_679" x="-4" y="-4" width="353.46" height="122.017" filterUnits="userSpaceOnUse" color-interpolation-filters="sRGB">
<feFlood flood-opacity="0" result="BackgroundImageFix"/>
<feGaussianBlur in="BackgroundImageFix" stdDeviation="2"/>
<feComposite in2="SourceAlpha" operator="in" result="effect1_backgroundBlur_283_679"/>
<feBlend mode="normal" in="SourceGraphic" in2="effect1_backgroundBlur_283_679" result="shape"/>
</filter>
</defs>
</svg>
